<svg id="SvgjsSvg1001" width="288" height="288" xmlns="http://www.w3.org/2000/svg" version="1.1" xmlns:xlink="http://www.w3.org/1999/xlink" xmlns:svgjs="http://svgjs.com/svgjs"><defs id="SvgjsDefs1002"></defs><g id="SvgjsG1008" transform="matrix(0.916700005531311,0,0,0.916700005531311,11.995199203491211,11.995199203491211)"><!--?xml version="1.0" encoding="UTF-8"?-->
<svg xmlns="http://www.w3.org/2000/svg" xmlns:xlink="http://www.w3.org/1999/xlink" version="1.1" id="Instagram" x="0px" y="0px" width="288" height="288" viewBox="0 0 144.083 144" enable-background="new 0 0 144.083 144" xml:space="preserve">
<path d="M72.041,11.166c-33.543,0-60.833,27.29-60.833,60.834c0,33.544,27.29,60.834,60.833,60.834  c33.544,0,60.834-27.29,60.834-60.834C132.875,38.456,105.584,11.166,72.041,11.166z M72.041,126.834  c-30.235,0-54.833-24.599-54.833-54.834c0-30.235,24.598-54.834,54.833-54.834c30.235,0,54.834,24.599,54.834,54.834  C126.875,102.235,102.276,126.834,72.041,126.834z" fill="#031c44" class="color000 svgShape"></path>
<path d="M91.076,42.701H53.006c-5.615,0-10.184,4.568-10.184,10.184v38.245c0,5.615,4.568,10.184,10.184,10.184h38.069  c5.615,0,10.184-4.568,10.184-10.184V52.884C101.259,47.269,96.691,42.701,91.076,42.701z M80.847,71.899  c0,4.856-3.95,8.806-8.806,8.806s-8.806-3.95-8.806-8.806c0-2.409,0.974-4.593,2.546-6.184H78.3  C79.874,67.306,80.847,69.49,80.847,71.899z M83.4,50.849h8.92v9.189H83.4V50.849z M91.076,95.313H53.006  c-2.307,0-4.184-1.877-4.184-4.184V65.715h9.784c-0.871,1.885-1.371,3.975-1.371,6.184c0,8.165,6.642,14.806,14.806,14.806  s14.806-6.642,14.806-14.806c0-2.209-0.5-4.299-1.371-6.184h9.783v25.414C95.259,93.436,93.382,95.313,91.076,95.313z" fill="#031c44" class="color000 svgShape"></path>

	
	
	
	<metadata>
		<rdf:rdf xmlns:rdf="http://www.w3.org/1999/02/22-rdf-syntax-ns#" xmlns:rdfs="http://www.w3.org/2000/01/rdf-schema#" xmlns:dc="http://purl.org/dc/elements/1.1/">
			<rdf:description about="https://iconscout.com/legal#licenses" dc:title="Instagram" dc:description="Instagram" dc:publisher="Iconscout" dc:date="2017-03-22" dc:format="image/svg+xml" dc:language="en">
				<dc:creator>
					<rdf:bag>
						<rdf:li>
					</rdf:li></rdf:bag>
				</dc:creator>
			</rdf:description>
		</rdf:rdf>
    </metadata></svg>
</g></svg>