<svg id="SvgjsSvg1001" width="288" height="288" xmlns="http://www.w3.org/2000/svg" version="1.1" xmlns:xlink="http://www.w3.org/1999/xlink" xmlns:svgjs="http://svgjs.com/svgjs"><defs id="SvgjsDefs1002"></defs><g id="SvgjsG1008" transform="matrix(0.916700005531311,0,0,0.916700005531311,11.995199203491211,11.995199203491211)"><svg xmlns="http://www.w3.org/2000/svg" viewBox="0 0 24 24" width="288" height="288"><g data-name="Layer 2" fill="#ef3125" class="color000 svgShape"><g data-name="phone" fill="#ef3125" class="color000 svgShape"><rect width="24" height="24" opacity="0" fill="#ef3125" class="color000 svgShape"></rect><path d="M17.4 22A15.42 15.42 0 0 1 2 6.6 4.6 4.6 0 0 1 6.6 2a3.94 3.94 0 0 1 .77.07 3.79 3.79 0 0 1 .72.18 1 1 0 0 1 .65.75l1.37 6a1 1 0 0 1-.26.92c-.13.14-.14.15-1.37.79a9.91 9.91 0 0 0 4.87 4.89c.65-1.24.66-1.25.8-1.38a1 1 0 0 1 .92-.26l6 1.37a1 1 0 0 1 .72.65 4.34 4.34 0 0 1 .19.73 4.77 4.77 0 0 1 .06.76A4.6 4.6 0 0 1 17.4 22z" fill="#ef3125" class="color000 svgShape"></path></g></g></svg></g></svg>