<svg id="SvgjsSvg1001" width="288" height="288" xmlns="http://www.w3.org/2000/svg" version="1.1" xmlns:xlink="http://www.w3.org/1999/xlink" xmlns:svgjs="http://svgjs.com/svgjs"><defs id="SvgjsDefs1002"></defs><g id="SvgjsG1008" transform="matrix(0.916700005531311,0,0,0.916700005531311,11.995283126831055,11.995199203491211)"><!--?xml version="1.0" encoding="UTF-8"?-->
<svg xmlns="http://www.w3.org/2000/svg" xmlns:xlink="http://www.w3.org/1999/xlink" version="1.1" id="Youtube" x="0px" y="0px" width="288" height="288" viewBox="0 0 144.083 144" enable-background="new 0 0 144.083 144" xml:space="preserve">
<path d="M72.041,11.166c-33.543,0-60.833,27.29-60.833,60.834s27.29,60.834,60.833,60.834c33.544,0,60.835-27.29,60.835-60.834  S105.584,11.166,72.041,11.166z M72.041,126.834c-30.235,0-54.833-24.599-54.833-54.834s24.598-54.834,54.833-54.834  c30.235,0,54.835,24.599,54.835,54.834S102.276,126.834,72.041,126.834z" fill="#ef3125" class="color000 svgShape"></path>
<path d="M96.375,50.418c0,0-6.875-1-24.75-1c-17.938,0-24.251,1-24.251,1c-4.446,0-8.051,3.604-8.051,8.05v26.563  c0,4.445,3.604,8.049,8.051,8.049c0,0,6.313,1,24.271,1c17.854,0,24.729-1,24.729-1c4.445,0,8.051-3.604,8.051-8.049V58.468  C104.426,54.022,100.821,50.418,96.375,50.418z M62.019,84.496v-25.35l21.954,12.674L62.019,84.496z" fill="#ef3125" class="color000 svgShape"></path>

	
	
	
	<metadata>
		<rdf:rdf xmlns:rdf="http://www.w3.org/1999/02/22-rdf-syntax-ns#" xmlns:rdfs="http://www.w3.org/2000/01/rdf-schema#" xmlns:dc="http://purl.org/dc/elements/1.1/">
			<rdf:description about="https://iconscout.com/legal#licenses" dc:title="Youtube" dc:description="Youtube" dc:publisher="Iconscout" dc:date="2017-03-22" dc:format="image/svg+xml" dc:language="en">
				<dc:creator>
					<rdf:bag>
						<rdf:li>
					</rdf:li></rdf:bag>
				</dc:creator>
			</rdf:description>
		</rdf:rdf>
    </metadata></svg>
</g></svg>